<?xml version="1.0" encoding="UTF-8" standalone="no"?>
<!-- Created with Inkscape (http://www.inkscape.org/) -->

<svg
   width="142.44682mm"
   height="154.04965mm"
   viewBox="0 0 142.44682 154.04965"
   version="1.1"
   id="svg1"
   xml:space="preserve"
   inkscape:version="1.4 (e7c3feb1, 2024-10-09)"
   sodipodi:docname="TicTalk-2.svg"
   xmlns:inkscape="http://www.inkscape.org/namespaces/inkscape"
   xmlns:sodipodi="http://sodipodi.sourceforge.net/DTD/sodipodi-0.dtd"
   xmlns="http://www.w3.org/2000/svg"
   xmlns:svg="http://www.w3.org/2000/svg"><sodipodi:namedview
     id="namedview1"
     pagecolor="#ffffff"
     bordercolor="#666666"
     borderopacity="1.0"
     inkscape:showpageshadow="2"
     inkscape:pageopacity="0.0"
     inkscape:pagecheckerboard="0"
     inkscape:deskcolor="#d1d1d1"
     inkscape:document-units="mm"
     inkscape:zoom="1.2711951"
     inkscape:cx="263.53155"
     inkscape:cy="296.17799"
     inkscape:window-width="1440"
     inkscape:window-height="1158"
     inkscape:window-x="152"
     inkscape:window-y="25"
     inkscape:window-maximized="0"
     inkscape:current-layer="layer1" /><defs
     id="defs1" /><g
     inkscape:label="Layer 1"
     inkscape:groupmode="layer"
     id="layer1"
     transform="translate(-31.247276,-75.737694)"><path
       style="fill:#000000"
       d="M 40.507692,217.84802 V 205.9087 h -4.630208 -4.630208 v -1.98438 -1.98437 h 11.90625 11.906249 v 1.98437 1.98438 h -4.7625 -4.7625 v 11.77395 11.77396 h -1.686718 c -0.927696,0 -2.058789,0.0744 -2.513542,0.16537 l -0.826823,0.16536 z m 35.80822,11.34081 c -2.711921,-0.88301 -5.340526,-3.20418 -6.470697,-5.7139 -0.668015,-1.48343 -1.005397,-4.15758 -0.75447,-5.98008 0.458659,-3.33127 2.621668,-6.36324 5.680489,-7.96254 1.513666,-0.79143 1.756122,-1.42333 5.213081,-1.5177 3.443902,-0.094 3.700285,0.5239 5.116382,1.17225 1.728926,0.79153 2.951898,1.74872 3.677316,2.87814 l 0.51303,0.79876 -0.75772,0.60418 c -0.416745,0.3323 -1.210034,0.80815 -1.762863,1.05744 l -1.005143,0.45326 -1.024632,-0.92569 c -3.108184,-2.80806 -7.822913,-2.22593 -9.959354,1.22968 -0.65717,1.06295 -0.815075,1.63537 -0.89663,3.2504 -0.212886,4.21576 1.96038,6.83649 5.933702,7.15543 2.109121,0.1693 3.353658,-0.25865 4.865921,-1.67319 l 1.21131,-1.13304 1.58,0.8398 c 0.869,0.46188 1.618517,1.04464 1.665594,1.29501 0.14416,0.7667 -2.170548,2.97108 -3.989249,3.7991 -2.234252,1.01722 -6.326455,1.18982 -8.836067,0.37269 z M 98.980611,217.81495 V 205.9087 H 94.3504 89.720192 v -1.98438 -1.98437 h 11.906248 11.90625 v 1.98437 1.98438 h -4.7625 -4.7625 v 11.7371 11.73711 l -1.38906,0.16684 c -0.76399,0.0918 -1.89508,0.16788 -2.51354,0.16915 l -1.124479,0.002 z m 20.206759,11.42003 c -2.53697,-0.87685 -3.83303,-2.18311 -4.3194,-4.35342 -0.51363,-2.2919 0.11515,-4.41485 1.65557,-5.58979 1.9923,-1.5196 3.06114,-1.7772 8.04182,-1.93814 l 4.63228,-0.14968 -0.16713,-1.04519 c -0.25741,-1.60976 -0.8387,-2.49211 -2.14684,-3.25873 -1.12293,-0.65808 -1.35952,-0.69506 -3.76884,-0.58903 -2.24388,0.0987 -2.77996,0.22035 -4.21679,0.95646 -0.90535,0.46382 -1.70731,0.84332 -1.78212,0.84332 -0.12328,0 -1.73115,-3.02601 -1.73115,-3.25802 0,-0.054 0.95713,-0.54727 2.12695,-1.09623 2.61376,-1.22657 5.07253,-1.56661 8.64744,-1.19591 2.84897,0.29543 3.96078,0.78002 5.5511,2.41947 1.82613,1.88256 1.8711,2.11374 2.08331,10.70919 l 0.18971,7.68442 -1.4279,0.17145 c -0.78535,0.0943 -1.81486,0.17248 -2.2878,0.17375 -0.84309,0.002 -0.8599,-0.021 -0.8599,-1.18833 0,-0.65484 -0.0665,-1.19062 -0.14781,-1.19062 -0.0813,0 -0.60061,0.36388 -1.15404,0.80863 -0.55343,0.44475 -1.5774,0.98053 -2.27549,1.19063 -1.74489,0.52513 -4.96839,0.47456 -6.64297,-0.10423 z m 6.34384,-3.27686 c 0.59385,-0.17792 1.58993,-0.81235 2.21351,-1.40985 1.07958,-1.03442 1.13379,-1.15958 1.13379,-2.61757 v -1.53121 l -3.50573,0.11104 c -4.58423,0.14521 -5.75468,0.71625 -5.75468,2.80759 0,2.20616 2.95609,3.52595 5.91311,2.64 z m 14.98897,-10.9213 v -14.68437 h 2.51354 2.51354 v 14.68437 14.68438 h -2.51354 -2.51354 z m -81.756238,3.96875 v -10.45104 h 2.38125 2.38125 v 10.45104 10.45104 h -2.38125 -2.38125 z m 93.397908,-4.10104 v -14.55208 h 2.51354 2.51354 v 8.58334 c 0,4.72084 0.0953,8.64227 0.21187,8.71428 0.11652,0.072 2.38673,-1.94501 5.0449,-4.4823 l 4.83303,-4.61324 h 2.95574 2.95574 l -4.33026,4.33623 c -3.09301,3.09728 -4.26765,4.43912 -4.11114,4.69635 0.24079,0.39576 8.15592,10.6624 8.79389,11.40648 0.37468,0.437 0.23246,0.46302 -2.53006,0.46302 h -2.92706 l -3.2411,-4.16718 c -1.7826,-2.29196 -3.40144,-4.34207 -3.59742,-4.5558 -0.30786,-0.33575 -0.60807,-0.13879 -2.20723,1.44811 l -1.8509,1.83672 v 2.71908 2.71907 h -2.51354 -2.51354 z M 59.690116,204.4333 c -1.877491,-0.97895 -2.074404,-3.51118 -0.366085,-4.70773 1.342651,-0.94043 3.921036,-0.36819 4.57788,1.01601 0.637606,1.34366 0.516594,1.95606 -0.608925,3.08158 -1.155082,1.15508 -2.213868,1.33438 -3.60287,0.61014 z m 88.767564,-15.1656 c -3.19848,-1.10276 -9.72599,-3.85996 -14.79102,-6.24769 l -4.33998,-2.04594 -3.46523,1.08782 c -3.58492,1.12539 -8.61272,2.37024 -12.06418,2.987 -1.39826,0.24986 -4.60234,0.3546 -10.84791,0.3546 -9.825603,0 -11.589716,-0.1804 -18.12396,-1.85339 -16.849794,-4.31412 -31.066513,-14.35353 -39.191132,-27.67558 -6.33361,-10.3853 -8.567531,-22.94077 -6.172657,-34.69262 3.614731,-17.73778 17.864939,-33.390366 37.161706,-40.818826 8.435863,-3.24745 15.889035,-4.62623 25.003123,-4.62538 8.83122,8.2e-4 14.25867,0.67706 21.29783,2.65362 14.74181,4.13943 27.69743,13.32461 35.62326,25.255926 3.24802,4.88946 6.16624,11.88615 7.3782,17.68983 0.74915,3.58744 1.09293,9.40441 0.78125,13.21923 -0.94776,11.60011 -5.72373,21.7147 -14.8655,31.48226 l -2.8339,3.0279 0.63076,2.34768 c 0.34691,1.29122 1.35393,4.42693 2.23781,6.96824 0.88389,2.5413 1.79994,5.51811 2.03568,6.61512 0.38711,1.80147 0.38932,2.08859 0.0229,2.96564 -0.84279,2.01708 -2.36132,2.37878 -5.47702,1.30456 z m -2.38125,-7.94609 c 0,-0.13498 -0.5348,-1.9395 -1.18845,-4.01004 -1.97955,-6.27057 -2.3858,-9.09349 -1.58462,-11.01099 0.22106,-0.52907 1.85836,-2.46001 3.63844,-4.29098 7.1649,-7.36972 10.96469,-14.23267 12.94001,-23.37148 0.85781,-3.96863 0.86236,-11.26406 0.01,-15.47929 -3.59436,-17.7685 -17.28572,-31.898896 -37.0851,-38.274316 -6.81246,-2.19363 -12.84054,-3.05211 -21.49712,-3.06148 -10.38225,-0.0112 -22.468432,3.33342 -31.511698,8.72035 -13.111291,7.81019 -21.644271,19.271256 -24.321912,32.667966 -0.477572,2.38938 -0.582478,3.79819 -0.572478,7.68797 0.01381,5.37038 0.457982,8.12011 2.11467,13.09119 6.211671,18.6388 26.078091,32.92942 48.899865,35.17541 3.686444,0.3628 10.539513,0.36549 13.855103,0.005 3.35933,-0.3648 8.22802,-1.34947 11.69737,-2.36574 8.12946,-2.38133 7.40373,-2.22795 8.97869,-1.8976 0.79806,0.16739 3.59894,1.3373 6.22418,2.5998 4.51106,2.1694 8.76637,4.04368 9.20494,4.05438 0.10914,0.003 0.19844,-0.1056 0.19844,-0.24058 z m -44.44999,-46.62856 c -1.20076,-0.34359 -2.067069,-1.15333 -2.643429,-2.47082 -0.25465,-0.58208 -0.68678,-1.25056 -0.9603,-1.48551 -0.27352,-0.23495 -4.680014,-3.06364 -9.792206,-6.28598 l -9.294895,-5.8588 -0.581361,-1.35141 c -0.319748,-0.74327 -0.601889,-1.66505 -0.62698,-2.04839 -0.04511,-0.68919 -0.02342,-0.6978 1.938756,-0.76908 l 1.984375,-0.0721 7.805209,4.93444 c 9.782852,6.18471 12.086851,7.51288 13.032761,7.51288 1.39358,0 0.52433,0.6156 20.30473,-14.37987 l 8.59896,-6.51884 1.71979,0.002 c 0.94588,10e-4 1.85344,0.0898 2.0168,0.19675 0.21283,0.13929 0.14533,0.70083 -0.23816,1.98131 l -0.53516,1.78693 -11.40351,8.65012 c -16.59303,12.58662 -15.80602,11.93557 -16.52504,13.67033 -0.88939,2.14582 -2.71949,3.10109 -4.80034,2.50568 z"
       id="path1"
       sodipodi:nodetypes="ccccccccccccccssccssssssscsscssssscssssccccccccccccccccccsssscsscssssssscscsssssssscsssccccccccccccccccccccccssscccsssscsssccccccssssssscssssssssssssscssscsscsssscscssssscsssccccssscssscssscccscsscc" /></g></svg>
