<?xml version="1.0" standalone="no"?>
<!DOCTYPE svg PUBLIC "-//W3C//DTD SVG 20010904//EN"
 "http://www.w3.org/TR/2001/REC-SVG-20010904/DTD/svg10.dtd">
<svg version="1.0" xmlns="http://www.w3.org/2000/svg"
 width="596.000000pt" height="628.000000pt" viewBox="0 0 596.000000 628.000000"
 preserveAspectRatio="xMidYMid meet">

<g transform="translate(0.000000,628.000000) scale(0.100000,-0.100000)"
fill="#000000" stroke="none">
<path d="M0 3140 l0 -3140 2980 0 2980 0 0 3140 0 3140 -2980 0 -2980 0 0
-3140z m3438 2846 c84 -15 208 -42 276 -61 1058 -290 1757 -1163 1695 -2117
-29 -446 -232 -877 -577 -1226 l-95 -97 26 -102 c15 -55 56 -183 92 -284 37
-101 70 -205 76 -232 19 -103 -31 -177 -119 -177 -71 0 -398 130 -702 279
l-125 61 -100 -36 c-55 -19 -162 -51 -238 -69 -768 -189 -1595 -39 -2212 399
-357 253 -616 579 -768 961 -78 196 -117 411 -117 640 0 296 53 527 179 790
113 235 256 432 442 609 403 384 905 611 1514 686 39 5 189 7 335 6 235 -3
283 -6 418 -30z m-1936 -4675 c32 -36 39 -102 13 -137 -49 -71 -179 -64 -213
12 -41 88 21 170 122 161 40 -4 55 -11 78 -36z m3069 -11 l29 0 0 -555 0 -555
-95 0 -95 0 0 553 c0 305 3 557 8 561 4 5 34 5 66 2 32 -3 72 -6 87 -6z m469
-331 c0 -181 3 -329 6 -329 3 0 65 58 138 128 72 71 156 152 187 181 l57 52
113 -3 114 -3 -169 -166 -169 -166 49 -62 c27 -35 76 -97 110 -139 122 -154
204 -262 204 -267 0 -3 -51 -5 -114 -5 l-115 0 -132 170 c-73 94 -136 169
-140 168 -4 -2 -37 -31 -74 -66 l-66 -63 2 -102 2 -102 -97 -3 -96 -3 0 554
c0 305 2 556 4 558 2 2 45 3 95 1 l91 -3 0 -330z m-3860 196 l0 -85 -175 0
-175 0 0 -445 0 -445 -100 0 -100 0 0 445 0 445 -175 0 -175 0 0 85 0 85 450
0 450 0 0 -85z m2210 0 l0 -85 -175 0 -175 0 0 -445 0 -445 -100 0 -100 0 -2
446 -3 446 -172 -2 -173 -1 0 86 0 85 450 0 450 0 0 -85z m-1170 -165 c36 -6
88 -22 117 -36 50 -24 143 -114 143 -138 0 -10 -118 -86 -134 -86 -5 0 -26 18
-47 40 -27 28 -55 44 -95 56 -118 34 -229 -13 -287 -121 -29 -54 -31 -183 -3
-235 48 -92 119 -134 221 -134 82 0 123 17 175 74 l35 39 73 -43 72 -43 -29
-39 c-44 -60 -80 -90 -146 -121 -55 -26 -69 -28 -175 -28 -93 1 -126 5 -174
23 -121 44 -216 146 -251 266 -27 91 -18 213 21 296 67 142 214 232 389 239
17 0 59 -4 95 -9z m1662 -1 c170 -26 255 -108 278 -266 5 -37 10 -175 10 -305
l0 -238 -90 0 -90 0 -2 28 c-1 15 -2 34 -2 43 0 12 -11 8 -44 -17 -62 -48
-138 -68 -237 -61 -129 8 -200 46 -253 136 -50 85 -28 210 47 274 63 52 131
69 310 75 l163 5 -5 44 c-6 54 -50 105 -106 122 -85 25 -213 5 -303 -49 l-34
-20 -34 59 c-18 33 -33 63 -33 68 -1 13 61 51 121 73 97 37 195 46 304 29z
m-2372 -404 l0 -406 -97 3 -98 3 -3 403 -2 402 100 0 100 0 0 -405z"/>
<path d="M2770 5770 c-571 -52 -1083 -281 -1451 -649 -319 -320 -487 -673
-519 -1090 -41 -546 229 -1093 725 -1465 487 -367 1127 -531 1770 -455 145 17
319 57 480 110 175 58 218 66 271 49 22 -7 125 -54 229 -105 189 -93 345 -159
345 -147 0 4 -14 43 -30 87 -43 113 -90 293 -97 369 -9 101 8 133 134 256 165
162 266 295 357 474 177 344 224 700 141 1066 -100 444 -381 833 -805 1115
-289 192 -630 318 -998 369 -138 20 -424 28 -552 16z m1456 -907 c-3 -10 -14
-47 -25 -83 -17 -56 -27 -71 -63 -97 -24 -17 -122 -91 -219 -164 -96 -74 -311
-237 -477 -364 -221 -168 -302 -235 -302 -250 0 -34 -43 -97 -80 -116 -39 -21
-110 -25 -143 -8 -41 21 -77 63 -83 97 -8 39 15 23 -459 321 -159 101 -294
186 -298 190 -4 4 -20 42 -36 83 l-28 75 83 6 84 6 97 -61 c89 -55 142 -88
343 -216 291 -183 306 -192 358 -192 49 0 53 2 308 196 143 109 313 238 379
288 66 49 179 135 250 191 128 98 131 100 195 106 120 11 122 11 116 -8z"/>
<path d="M3684 526 c-92 -40 -84 -165 12 -196 49 -17 142 -8 190 16 57 30 84
75 84 140 l0 54 -127 0 c-85 -1 -138 -5 -159 -14z"/>
</g>
</svg>
