<?xml version="1.0" encoding="UTF-8" standalone="no"?>
<!-- Created with Inkscape (http://www.inkscape.org/) -->

<svg
   width="142.44682mm"
   height="154.04965mm"
   viewBox="0 0 142.44682 154.04965"
   version="1.1"
   id="svg1"
   xml:space="preserve"
   inkscape:version="1.4 (e7c3feb1, 2024-10-09)"
   sodipodi:docname="TicTalk-3.svg"
   inkscape:export-filename="TicTalk-3.png"
   inkscape:export-xdpi="104.71"
   inkscape:export-ydpi="104.71"
   xmlns:inkscape="http://www.inkscape.org/namespaces/inkscape"
   xmlns:sodipodi="http://sodipodi.sourceforge.net/DTD/sodipodi-0.dtd"
   xmlns="http://www.w3.org/2000/svg"
   xmlns:svg="http://www.w3.org/2000/svg"><sodipodi:namedview
     id="namedview1"
     pagecolor="#ffffff"
     bordercolor="#666666"
     borderopacity="1.0"
     inkscape:showpageshadow="2"
     inkscape:pageopacity="0.0"
     inkscape:pagecheckerboard="true"
     inkscape:deskcolor="#d1d1d1"
     inkscape:document-units="mm"
     inkscape:zoom="1.2711951"
     inkscape:cx="263.92487"
     inkscape:cy="296.17798"
     inkscape:window-width="1440"
     inkscape:window-height="1130"
     inkscape:window-x="711"
     inkscape:window-y="25"
     inkscape:window-maximized="0"
     inkscape:current-layer="layer1" /><defs
     id="defs1" /><g
     inkscape:label="Layer 1"
     inkscape:groupmode="layer"
     id="layer1"
     transform="translate(-31.247276,-75.737694)"><path
       id="path1"
       style="fill:#ffffff"
       d="M 101.62644 75.737694 C 92.512355 75.736844 85.059181 77.115801 76.623318 80.363251 C 57.326551 87.791711 43.076493 103.44417 39.461762 121.18195 C 37.066888 132.9338 39.300902 145.4891 45.634512 155.8744 C 53.759131 169.19645 67.975607 179.23611 84.825401 183.55023 C 91.359645 185.22322 93.123756 185.40335 102.94936 185.40335 C 109.19493 185.40335 112.39902 185.29871 113.79728 185.04885 C 117.24874 184.43209 122.27674 183.18734 125.86166 182.06195 L 129.32656 180.97416 L 133.66686 183.02003 C 138.73189 185.40776 145.25921 188.16496 148.45769 189.26772 C 151.57339 190.34194 153.09209 189.97997 153.93488 187.96289 C 154.3013 187.08584 154.29873 186.79916 153.91162 184.99769 C 153.67588 183.90068 152.75998 180.92389 151.87609 178.38259 C 150.99221 175.84128 149.98541 172.70524 149.6385 171.41402 L 149.00753 169.06636 L 151.84147 166.03864 C 160.98324 156.27108 165.75946 146.15644 166.70722 134.55633 C 167.0189 130.74151 166.67503 124.92442 165.92588 121.33698 C 164.71392 115.5333 161.79554 108.53656 158.54752 103.6471 C 150.62169 91.715786 137.66618 82.530709 122.92437 78.391279 C 115.88521 76.414719 110.45766 75.738514 101.62644 75.737694 z M 101.30967 81.823111 C 109.96625 81.832481 115.99409 82.690793 122.80655 84.884423 C 142.60593 91.259843 156.29726 105.39007 159.89162 123.15857 C 160.74398 127.3738 160.73961 134.66962 159.8818 138.63825 C 157.90648 147.77706 154.10692 154.63971 146.94202 162.00943 C 145.16194 163.8404 143.52455 165.77157 143.30349 166.30064 C 142.50231 168.21814 142.90833 171.04077 144.88788 177.31134 C 145.54153 179.38188 146.07644 181.18645 146.07644 181.32143 L 146.07696 181.32143 C 146.07696 181.45641 145.98766 181.56473 145.87852 181.56173 C 145.43995 181.55103 141.18446 179.67659 136.6734 177.50719 C 134.04816 176.24469 131.24703 175.07474 130.44897 174.90735 C 128.87401 174.577 129.60017 174.4241 121.47071 176.80543 C 118.00136 177.8217 113.13256 178.80637 109.77323 179.17117 C 106.45764 179.53166 99.604708 179.52881 95.918264 179.16601 C 73.09649 176.92002 53.230077 162.62918 47.018406 143.99038 C 45.361718 139.0193 44.9171 136.26956 44.90329 130.89918 C 44.89329 127.0094 44.998293 125.60066 45.475865 123.21128 C 48.153506 109.81457 56.686603 98.353699 69.797894 90.543509 C 78.84116 85.156579 90.927416 81.811911 101.30967 81.823111 z M 131.39207 105.89968 L 122.79311 112.41866 C 103.01271 127.41413 103.88199 126.79814 102.48841 126.79814 C 101.5425 126.79814 99.238461 125.47013 89.455609 119.28542 L 81.650401 114.35084 L 79.666026 114.42319 C 77.70385 114.49447 77.682016 114.50294 77.727126 115.19213 C 77.752217 115.57547 78.03473 116.49732 78.354478 117.24059 L 78.935838 118.59193 L 88.230361 124.45048 C 93.342553 127.67282 97.749008 130.50197 98.022528 130.73692 C 98.296048 130.97187 98.728543 131.64002 98.983193 132.2221 C 99.559553 133.53959 100.42568 134.34968 101.62644 134.69327 L 101.62644 134.69275 C 103.70729 135.28816 105.53728 134.33278 106.42667 132.18696 C 107.14569 130.4522 106.35873 131.1031 122.95176 118.51648 L 134.35519 109.86636 L 134.89056 108.07939 C 135.27405 106.79891 135.34162 106.2374 135.12879 106.09811 C 134.96543 105.99116 134.05774 105.90274 133.11186 105.90174 L 131.39207 105.89968 z M 61.189118 199.26866 C 60.50457 199.23283 59.827609 199.37281 59.324115 199.72547 C 57.615796 200.92202 57.812493 203.45425 59.689984 204.4332 C 61.078986 205.15744 62.137783 204.9785 63.292865 203.82342 C 64.418384 202.6979 64.539736 202.08509 63.90213 200.74143 C 63.491603 199.87631 62.33003 199.32836 61.189118 199.26866 z M 140.52019 200.35231 L 140.52019 215.03668 L 140.52019 229.72106 L 143.03373 229.72106 L 145.54728 229.72106 L 145.54728 215.03668 L 145.54728 200.35231 L 143.03373 200.35231 L 140.52019 200.35231 z M 152.16186 200.35231 L 152.16186 214.90439 L 152.16186 229.45648 L 154.6754 229.45648 L 157.18894 229.45648 L 157.18894 226.73778 L 157.18894 224.01857 L 159.03999 222.18199 C 160.63915 220.59509 160.93923 220.39774 161.24709 220.73349 C 161.44307 220.94722 163.06169 222.99733 164.84429 225.28929 L 168.08544 229.45648 L 171.01239 229.45648 C 173.77491 229.45648 173.91715 229.43046 173.54247 228.99346 C 172.9045 228.24938 164.98948 217.98268 164.74869 217.58692 C 164.59218 217.32969 165.76705 215.98784 168.86006 212.89056 L 173.19003 208.55439 L 170.23466 208.55439 L 167.27877 208.55439 L 162.44547 213.16755 C 159.7873 215.70484 157.51734 217.72196 157.40082 217.64996 C 157.28425 217.57795 157.18894 213.65661 157.18894 208.93577 L 157.18894 200.35231 L 154.6754 200.35231 L 152.16186 200.35231 z M 31.247276 201.93981 L 31.247276 203.92418 L 31.247276 205.90856 L 35.877484 205.90856 L 40.507693 205.90856 L 40.507693 217.84788 L 40.507693 229.78721 L 41.334516 229.62184 C 41.789269 229.53087 42.920361 229.45648 43.848057 229.45648 L 45.534776 229.45648 L 45.534776 217.68252 L 45.534776 205.90856 L 50.297276 205.90856 L 55.059776 205.90856 L 55.059776 203.92418 L 55.059776 201.93981 L 43.153526 201.93981 L 31.247276 201.93981 z M 89.720193 201.93981 L 89.720193 203.92418 L 89.720193 205.90856 L 94.350401 205.90856 L 98.980609 205.90856 L 98.980609 217.81481 L 98.980609 229.72106 L 100.10509 229.71899 C 100.72355 229.71772 101.85464 229.64129 102.61863 229.54949 L 104.00769 229.3831 L 104.00769 217.64583 L 104.00769 205.90856 L 108.77019 205.90856 L 113.53269 205.90856 L 113.53269 203.92418 L 113.53269 201.93981 L 101.62644 201.93981 L 89.720193 201.93981 z M 79.984353 208.01437 C 76.527394 208.10874 76.2849 208.74068 74.771234 209.53211 C 71.712413 211.13141 69.54962 214.16366 69.090961 217.49493 C 68.840034 219.31743 69.177422 221.9915 69.845437 223.47493 C 70.975608 225.98465 73.603922 228.30578 76.315843 229.18879 C 78.825455 230.00592 82.917744 229.83343 85.151996 228.81621 C 86.970697 227.98819 89.285577 225.78365 89.141417 225.01695 C 89.09434 224.76658 88.344885 224.18382 87.475885 223.72194 L 85.89562 222.8822 L 84.684324 224.01546 C 83.172061 225.43 81.927592 225.85753 79.818471 225.68823 C 75.845149 225.36929 73.671581 222.74887 73.884467 218.53311 C 73.966022 216.91808 74.1244 216.34561 74.78157 215.28266 C 76.918011 211.82705 81.632468 211.24471 84.740652 214.05277 L 85.765395 214.97881 L 86.770502 214.5256 C 87.323331 214.27631 88.11644 213.80009 88.533185 213.46779 L 89.291278 212.86369 L 88.778131 212.06477 C 88.052713 210.93535 86.829762 209.97844 85.100836 209.18691 C 83.684739 208.53856 83.428255 207.92037 79.984353 208.01437 z M 123.66747 208.41848 C 121.34526 208.41523 119.4721 208.83646 117.51178 209.75639 C 116.34196 210.30535 115.38478 210.79896 115.38478 210.85296 C 115.38478 211.08497 116.99266 214.11064 117.11594 214.11064 C 117.19075 214.11064 117.99291 213.7311 118.89826 213.26728 C 120.33509 212.53117 120.87117 212.40945 123.11505 212.31075 C 125.52437 212.20472 125.76089 212.24178 126.88382 212.89986 C 128.19196 213.66648 128.77304 214.54882 129.03045 216.15858 L 129.19789 217.20399 L 124.56561 217.35386 C 119.58493 217.5148 118.51602 217.77212 116.52372 219.29172 C 114.9833 220.46666 114.35438 222.58966 114.86801 224.88156 C 115.35438 227.05187 116.65016 228.35793 119.18713 229.23478 C 120.86171 229.81357 124.08524 229.8643 125.83013 229.33917 C 126.52822 229.12907 127.55253 228.5933 128.10596 228.14855 C 128.65939 227.7038 129.1786 227.33981 129.2599 227.33981 C 129.34121 227.33981 129.40769 227.87559 129.40769 228.53043 C 129.40769 229.69776 129.4245 229.72099 130.26759 229.71899 C 130.74053 229.71772 131.76995 229.63966 132.5553 229.54536 L 133.98312 229.37379 L 133.79347 221.68951 C 133.58126 213.09406 133.53652 212.86264 131.71039 210.98008 C 130.12007 209.34063 129.00828 208.85602 126.15931 208.56059 C 125.26558 208.46792 124.44155 208.41957 123.66747 208.41848 z M 58.763943 208.55439 L 58.763943 219.00543 L 58.763943 229.45648 L 61.145193 229.45648 L 63.526443 229.45648 L 63.526443 219.00543 L 63.526443 208.55439 L 61.145193 208.55439 L 58.763943 208.55439 z M 128.87853 220.39967 L 128.87853 221.93084 C 128.87853 223.38883 128.82433 223.51383 127.74475 224.54825 C 127.12117 225.14575 126.12529 225.78006 125.53144 225.95798 C 122.57442 226.84393 119.61811 225.52451 119.61811 223.31835 C 119.61811 221.22701 120.78857 220.65598 125.3728 220.51077 L 128.87853 220.39967 z " /></g></svg>
